<svg width="191" height="189" viewBox="0 0 191 189" fill="none" xmlns="http://www.w3.org/2000/svg">
<g clip-path="url(#clip0_107_3)">
<path d="M154.665 75.5838C179.565 21.5364 136.707 4.67017 110.85 3.08382C53.7967 1.12772 46.6767 33.8037 52.1308 59.5839C28.7556 29.5839 15.2767 42.0839 11.3499 52.5839C-7.05013 101.784 8.29259 150.857 25.2926 163C81.2926 203 152.35 180.814 166.35 169.084C210.75 131.884 177.06 91.2505 154.665 75.5838Z" fill="#FFD803"/>
<path d="M57.3499 75.5838C55.2537 70.9291 53.3685 65.434 52.1308 59.5839M150.35 84.0839C151.969 81.1533 153.404 78.3209 154.665 75.5838M154.665 75.5838C179.565 21.5364 136.707 4.67017 110.85 3.08382C53.7967 1.12772 46.6767 33.8037 52.1308 59.5839M154.665 75.5838C177.06 91.2505 210.75 131.884 166.35 169.084C152.35 180.814 81.2926 203 25.2926 163C8.29259 150.857 -7.05013 101.784 11.3499 52.5839C15.2767 42.0839 28.7556 29.5839 52.1308 59.5839" stroke="#2D334A" stroke-width="5"/>
<path d="M138.293 60C114.693 82.4 92.4593 69.3333 84.2926 60C86.4593 56.3333 93.3926 49.4 103.793 51C105.793 44.8333 111.893 36.2 120.293 51C126.293 50.3333 138.293 51.2 138.293 60Z" fill="#FF4713" stroke="#2D334A" stroke-width="5"/>
<path d="M90 65C94 64.5 104.5 64 105.5 62C106.5 60 114 52.9999 119.5 62C121.833 63.3333 131.6 63.5 134 63.5" stroke="#2D334A" stroke-width="3"/>
<path d="M16.2926 66.5C13.6259 83.3333 12.8926 114.8 31.2926 106C33.2926 122.167 43.1926 150.7 66.7926 135.5C72.2926 131.958 75.9926 118.6 64.7926 99" stroke="#2D334A" stroke-width="3"/>
</g>
<defs>
<clipPath id="clip0_107_3">
<rect width="191" height="189" fill="white"/>
</clipPath>
</defs>
</svg>
