<svg width="798" height="623" viewBox="0 0 798 623" fill="none" xmlns="http://www.w3.org/2000/svg">
<path d="M219.556 387.237C195.304 390.57 179.828 415.674 171.518 437.914C167.144 449.62 176.523 461 189.02 461H392.713C405.932 461 414.957 448.519 408.847 436.798C397.65 415.314 378.963 389.768 357.736 387.237C324.197 383.238 253.185 382.616 219.556 387.237Z" fill="#2D334A" stroke="#2D334A" stroke-width="70" stroke-linecap="round"/>
<path d="M510 201H654" stroke="#2D334A" stroke-width="70" stroke-linecap="round"/>
<path d="M510 312H654" stroke="#2D334A" stroke-width="70" stroke-linecap="round"/>
<path d="M713 35H85C57.3858 35 35 57.3858 35 85V538C35 565.614 57.3857 588 85 588H713C740.614 588 763 565.614 763 538V85C763 57.3858 740.614 35 713 35Z" stroke="#2D334A" stroke-width="70"/>
<ellipse cx="293" cy="224.5" rx="94" ry="93.5" fill="#2D334A"/>
</svg>
