<svg width="600" height="625" viewBox="0 0 600 625" fill="none" xmlns="http://www.w3.org/2000/svg">
<path d="M204.416 105.843L160.927 130.747C156.184 133.463 150.536 134.12 145.296 132.564L105.067 120.621C95.9956 117.928 86.2785 121.961 81.7797 130.286L32.6394 221.215C28.6511 228.594 29.692 237.679 35.2461 243.965L66.4883 279.327C69.7176 282.983 71.5 287.692 71.5 292.569V334.262C71.5 339.241 69.643 344.041 66.2921 347.723L35.5648 381.489C29.8376 387.783 28.7198 397.011 32.7789 404.49L82.1632 495.482C86.4888 503.452 95.6354 507.514 104.449 505.38L146.129 495.285C150.878 494.135 155.884 494.763 160.201 497.051L203.98 520.25C209.077 522.951 212.759 527.72 214.082 533.334L224.867 579.089C226.996 588.119 235.056 594.5 244.334 594.5H349.205C358.233 594.5 366.142 588.452 368.507 579.739L381.345 532.441C382.725 527.354 386.059 523.017 390.619 520.375L430.669 497.169C434.757 494.8 439.552 493.955 444.204 494.783L508.232 506.191C517.448 507.833 526.571 502.862 530.187 494.227L567.872 404.244C570.98 396.824 569.339 388.265 563.709 382.519L529.716 347.832C526.052 344.094 524 339.068 524 333.834V292.994C524 287.862 525.973 282.926 529.511 279.208L562.68 244.346C568.798 237.916 569.947 228.224 565.501 220.542L512.764 129.416C508.194 121.519 498.859 117.716 490.072 120.171L445.509 132.623C440.089 134.137 434.282 133.298 429.512 130.311L390.188 105.688C385.891 102.997 382.776 98.774 381.473 93.8734L368.45 44.8636C366.121 36.1002 358.188 30 349.121 30H244.41C235.097 30 227.017 36.4282 224.922 45.5028L213.965 92.9844C212.712 98.4136 209.251 103.074 204.416 105.843Z" stroke="#272343" stroke-width="60" stroke-linecap="round"/>
<circle cx="296" cy="312.5" r="90.5" stroke="#272343" stroke-width="60"/>
</svg>
