<svg width="512" height="512" viewBox="0 0 512 512" fill="none" xmlns="http://www.w3.org/2000/svg">
<g clip-path="url(#clip0_96_16)">
<path d="M414.381 204.874C481.1 59.7667 366.263 14.4841 296.98 10.2251C144.108 4.97328 125.03 92.702 139.644 161.917C77.0111 81.3726 40.8949 114.933 30.3732 143.123C-18.9289 275.216 22.1813 406.968 67.7322 439.569C217.782 546.961 408.177 487.395 445.69 455.903C564.658 356.028 474.387 246.936 414.381 204.874Z" fill="#FFD803"/>
<path d="M153.628 204.874C148.012 192.377 142.96 177.623 139.644 161.917M402.818 227.695C407.158 219.826 411.002 212.222 414.381 204.874M414.381 204.874C481.1 59.7667 366.263 14.4841 296.98 10.2251C144.108 4.97328 125.03 92.702 139.644 161.917M414.381 204.874C474.387 246.936 564.658 356.028 445.69 455.903C408.177 487.395 217.782 546.962 67.7322 439.569C22.1813 406.968 -18.9289 275.216 30.3732 143.123C40.8949 114.933 77.0111 81.3726 139.644 161.917" stroke="#2D334A" stroke-width="20" stroke-linecap="round"/>
<path d="M370 163.923C307.067 223.828 247.778 188.884 226 163.923C231.778 154.117 250.267 135.575 278 139.854C283.333 123.363 299.6 100.274 322 139.854C338 138.071 370 140.389 370 163.923Z" fill="#FF4713" stroke="#2D334A" stroke-width="20" stroke-linejoin="round"/>
<path d="M241 176C251.727 174.73 279.886 173.461 282.568 168.382C285.25 163.304 305.364 145.529 320.114 168.382C326.371 171.768 352.564 172.191 359 172.191" stroke="#2D334A" stroke-width="15"/>
<path d="M76.7821 221C69.6483 265.999 67.6865 350.115 116.91 326.591C122.26 369.807 148.745 446.082 211.879 405.45C226.593 395.98 236.491 360.273 206.529 307.878" stroke="#2D334A" stroke-width="20" stroke-linecap="round" stroke-linejoin="round"/>
<ellipse cx="218.873" cy="117.968" rx="13.3973" ry="14.737" transform="rotate(26.0445 218.873 117.968)" fill="#2D334A"/>
<ellipse cx="218.873" cy="117.968" rx="13.3973" ry="14.737" transform="rotate(26.0445 218.873 117.968)" fill="#2D334A"/>
<ellipse rx="13.3973" ry="14.737" transform="matrix(-0.898454 0.439069 0.439069 0.898454 368.923 117.968)" fill="#2D334A"/>
<ellipse rx="13.3973" ry="14.737" transform="matrix(-0.898454 0.439069 0.439069 0.898454 368.923 117.968)" fill="#2D334A"/>
</g>
<defs>
<clipPath id="clip0_96_16">
<rect width="512" height="512" fill="white"/>
</clipPath>
</defs>
</svg>
