<svg width="512" height="512" viewBox="0 0 512 512" fill="none" xmlns="http://www.w3.org/2000/svg">
<g clip-path="url(#clip0_103_59)">
<rect width="512" height="512" fill="white"/>
<path d="M407.5 250.5C407.5 333.32 339.694 400.5 256 400.5C172.306 400.5 104.5 333.32 104.5 250.5C104.5 167.68 172.306 100.5 256 100.5C339.694 100.5 407.5 167.68 407.5 250.5Z" fill="#E3F6F5" fill-opacity="0.72" stroke="#272343" stroke-width="5"/>
<rect x="151.5" y="386.5" width="208" height="272" fill="#FF4713" stroke="#272343" stroke-width="5"/>
<path d="M170 84.5H344C353.665 84.5 361.5 92.335 361.5 102V139.5H152.5V102C152.5 92.335 160.335 84.5 170 84.5Z" fill="#FF4713" stroke="#272343" stroke-width="5"/>
<path d="M241 62.5H273C282.665 62.5 290.5 70.335 290.5 80V86.5H223.5V80C223.5 70.335 231.335 62.5 241 62.5Z" fill="#FF4713" stroke="#272343" stroke-width="5"/>
<rect x="151.5" y="362.5" width="208" height="38" fill="#CDDEE6" stroke="#272343" stroke-width="5"/>
<path d="M212.5 400.5H299.5V472C299.5 487.188 287.188 499.5 272 499.5H240C224.812 499.5 212.5 487.188 212.5 472V400.5Z" fill="#CDDEE6" stroke="#272343" stroke-width="5"/>
<circle cx="257" cy="429" r="17" fill="#ACBAC3" stroke="#272343" stroke-width="4"/>
<path d="M266.5 467.5C266.5 473.086 262.185 477.5 257 477.5C251.815 477.5 247.5 473.086 247.5 467.5C247.5 461.914 251.815 457.5 257 457.5C262.185 457.5 266.5 461.914 266.5 467.5Z" fill="#ACBAC3" stroke="#272343" stroke-width="3"/>
<path d="M266.5 462.5H277C277.828 462.5 278.5 463.172 278.5 464V471C278.5 471.828 277.828 472.5 277 472.5H266.5V462.5Z" fill="#ACBAC3" stroke="#272343" stroke-width="3"/>
<path d="M237 462.5H247.5V472.5H237C236.172 472.5 235.5 471.828 235.5 471V464C235.5 463.172 236.172 462.5 237 462.5Z" fill="#ACBAC3" stroke="#272343" stroke-width="3"/>
<path d="M338 460V548" stroke="#272343" stroke-width="4" stroke-linecap="round"/>
<g clip-path="url(#clip1_103_59)">
<path d="M303.549 255.695C321.703 205.288 281.984 193.459 258.683 194.027C207.39 196.668 203.527 226.531 210.404 249.24C187.137 224.126 176.018 236.379 173.308 246.101C160.607 291.658 178.144 334.502 194.319 344.086C247.602 375.658 309.587 350.279 321.233 338.677C358.165 301.883 324.832 268.025 303.549 255.695Z" fill="#FFD803"/>
<path d="M216.316 263.192C214.078 259.177 211.964 254.393 210.404 249.24M300.336 263.653C301.562 260.899 302.63 258.247 303.549 255.695M303.549 255.695C321.703 205.288 281.984 193.459 258.683 194.027C207.39 196.668 203.527 226.531 210.404 249.24M303.549 255.695C324.832 268.025 358.165 301.883 321.233 338.677C309.587 350.279 247.602 375.658 194.319 344.086C178.144 334.502 160.607 291.658 173.308 246.101C176.018 236.379 187.137 224.126 210.404 249.24" stroke="#2D334A" stroke-width="5" stroke-linecap="round"/>
<path d="M287.63 243.527C268.267 266.555 247.246 255.899 239.155 247.693C240.802 244.055 246.462 236.956 255.928 237.668C257.221 231.676 261.995 223.032 270.74 236.395C276.071 235.301 286.914 235.196 287.63 243.527Z" fill="#FF4713" stroke="#2D334A" stroke-width="2" stroke-linejoin="round"/>
<path d="M245.114 251.464C248.641 250.784 257.952 249.608 258.713 248.036C259.475 246.465 265.699 240.659 271.171 246.966C273.333 247.784 282.035 247.161 284.17 246.978" stroke="#2D334A" stroke-width="2"/>
<path d="M191.707 271.08C190.647 286.263 192.409 314.323 207.931 305.1C210.928 319.337 221.824 343.982 241.434 328.669C246.004 325.1 248.239 312.932 236.882 296.336" stroke="#2D334A" stroke-width="5" stroke-linecap="round" stroke-linejoin="round"/>
<ellipse cx="235.661" cy="232.322" rx="4.49913" ry="4.94904" transform="rotate(21.1324 235.661 232.322)" fill="#2D334A"/>
<ellipse cx="235.661" cy="232.322" rx="4.49913" ry="4.94904" transform="rotate(21.1324 235.661 232.322)" fill="#2D334A"/>
<ellipse rx="4.49912" ry="4.94904" transform="matrix(-0.857558 0.514387 0.514387 0.857558 285.866 228.007)" fill="#2D334A"/>
<ellipse rx="4.49912" ry="4.94904" transform="matrix(-0.857558 0.514387 0.514387 0.857558 285.866 228.007)" fill="#2D334A"/>
</g>
</g>
<defs>
<clipPath id="clip0_103_59">
<rect width="512" height="512" fill="white"/>
</clipPath>
<clipPath id="clip1_103_59">
<rect width="182.716" height="182.716" fill="white" transform="translate(158 193.645) rotate(-4.91204)"/>
</clipPath>
</defs>
</svg>
