<svg width="40" height="32" viewBox="0 0 40 32" fill="none" xmlns="http://www.w3.org/2000/svg">
<path d="M24.899 5.44161L25.4689 4.76314L24.5935 4.62602L19.2551 3.78987L21.5511 0.5L26.9225 0.5L33.0484 5.36152V10.4287L29.5073 10.7921L30.1658 7.78703C30.2249 7.51729 30.0542 7.2507 29.7845 7.19159C29.5147 7.13248 29.2481 7.30323 29.189 7.57297L28.46 10.8995L24.3778 11.3185L21.9692 8.92918L24.899 5.44161ZM18.6183 4.70232L23.5633 5.47686L20.9568 8.57967L11.9892 14.2984L11.8173 14.4081L11.7711 14.6067L10.0607 21.9589L3.94193 14.751L3.64094 14.3964L0.755121 10.9969L12.3652 3.72288L18.3097 4.65398L18.6183 4.70232ZM28.922 11.8574L33.4348 11.3943L39.5 15.0043V22.3695L33.691 20.6408L31.9585 20.1252L33.1798 21.4578L38.1596 26.8918L33.7433 25.1394C33.7363 25.1364 33.7292 25.1336 33.722 25.131L33.4286 25.0145L33.3425 25.1L27.5968 25.1V14.72V14.5117L27.4489 14.365L25.2961 12.2295L28.922 11.8574ZM27.0968 26.1L32.3344 26.1L26.8908 31.5H10.576L2.9336 21.0758L2.74928 20.8244C2.74919 20.8242 2.74911 20.8241 2.74902 20.824L0.659218 17.9735L3.22645 15.4534L9.9414 23.3636L9.98744 23.4178L10.0468 23.457L13.9177 26.017L14.3613 26.3104L14.6268 25.8496L16.8832 21.9324L20.9382 25.955L21.2534 26.2676L21.6011 25.9917L24.4792 23.7076L26.7446 25.955L26.8908 26.1H27.0968ZM2.41695 22.0624L8.39522 30.2167L0.658641 25.4201L2.41695 22.0624ZM21.3273 24.9324L17.3841 21.0208L18.8336 18.145C18.9579 17.8985 18.8587 17.5978 18.6121 17.4735C18.3656 17.3492 18.0649 17.4484 17.9406 17.695L16.334 20.8825L14.0258 24.8896L10.8883 22.8147L12.6989 15.0319L21.222 9.59656L23.8414 12.195L26.5968 14.9283V24.3997L24.8683 22.685L24.5531 22.3724L24.2053 22.6483L21.3273 24.9324Z" fill="#FFF1A6" stroke="#272343" stroke-linecap="round"/>
</svg>
