<svg width="620" height="622" viewBox="0 0 620 622" fill="none" xmlns="http://www.w3.org/2000/svg">
<path d="M25 388.5H435.5M435.5 388.5L340 491M435.5 388.5L340 286.5" stroke="#272343" stroke-width="50" stroke-linecap="round" stroke-linejoin="round"/>
<path d="M184 281.5V60.5C184 25 184 25 229.5 25L470 25L595 150V546C595 596.5 595 596.5 559 596.5H229.5C184 596.5 184 596.5 184 546L184 491" stroke="#272343" stroke-width="50" stroke-linecap="round" stroke-linejoin="round"/>
<path d="M579.351 151.015L451.335 39.0001L451.335 151.015L579.351 151.015Z" fill="#272343"/>
<path d="M451.335 39.0001L471.091 16.4229C462.232 8.67134 449.658 6.81697 438.939 11.681C428.219 16.5451 421.335 27.2287 421.335 39.0001L451.335 39.0001ZM579.351 151.015L579.351 181.015C591.849 181.015 603.038 173.266 607.434 161.567C611.83 149.867 608.512 136.668 599.106 128.438L579.351 151.015ZM451.335 151.015L421.335 151.015L421.335 181.015L451.335 181.015L451.335 151.015ZM431.58 61.5773L559.596 173.592L599.106 128.438L471.091 16.4229L431.58 61.5773ZM421.335 39.0001L421.335 151.015L481.335 151.015L481.335 39.0001L421.335 39.0001ZM451.335 181.015L579.351 181.015L579.351 121.015L451.335 121.015L451.335 181.015Z" fill="#272343"/>
</svg>
